# Blender 3.3.0
# www.blender.org
mtllib LBoArm.mtl
o 立方体.005
v -0.104664 -0.087250 0.177048
v -0.104664 -0.087250 0.286592
v 0.932955 -0.087250 0.177048
v 0.932955 -0.087250 0.286592
v -0.104664 0.048442 0.177048
v -0.104664 0.048442 0.286592
v 0.932955 0.048442 0.177048
v 0.932955 0.048442 0.286592
vn -0.0000 -1.0000 -0.0000
vn 1.0000 -0.0000 -0.0000
vn -0.0000 1.0000 -0.0000
vn -1.0000 -0.0000 -0.0000
vn -0.0000 -0.0000 -1.0000
vn -0.0000 -0.0000 1.0000
vt 0.817431 0.864657
vt 1.000000 0.000000
vt 0.226147 0.864657
vt 0.634863 0.864657
vt 0.817431 0.000000
vt 0.226147 0.864657
vt 1.000000 0.452294
vt 0.226147 0.000000
vt 0.817431 0.000000
vt 0.634863 0.000000
vt 0.817431 0.452294
vt 0.226147 0.000000
vt 1.000000 0.226147
vt 0.634863 0.000000
vt 0.452294 0.864657
vt 0.452294 0.000000
vt 0.817431 0.226147
vt 0.000000 0.864657
vt 0.634863 0.864657
vt 1.000000 0.226147
vt 0.452294 0.000000
vt 0.000000 0.000000
vt 0.817431 0.226147
vt 0.452294 0.864657
s 0
usemtl マテリアル.003
f 2/4/1 1/1/1 3/9/1
f 4/11/2 3/7/2 7/20/2
f 8/24/3 7/19/3 5/14/3
f 6/17/4 5/13/4 1/2/4
f 7/21/5 3/8/5 1/3/5
f 4/12/6 8/22/6 6/18/6
f 2/4/1 3/9/1 4/10/1
f 4/11/2 7/20/2 8/23/2
f 8/24/3 5/14/3 6/16/3
f 6/17/4 1/2/4 2/5/4
f 7/21/5 1/3/5 5/15/5
f 4/12/6 6/18/6 2/6/6
