# Blender 3.3.0
# www.blender.org
mtllib GroundAttack.mtl
o 立方体.007
v 1.092766 -2.805517 -1.066376
v 1.092766 2.919523 -1.066376
v 1.092766 -2.805517 0.933624
v 1.092766 2.919523 0.933624
v -0.907234 -2.805517 -1.066376
v -0.907234 2.919523 -1.066376
v -0.907234 -2.805517 0.933624
v -0.907234 2.919523 0.933624
vn 1.0000 -0.0000 -0.0000
vn -0.0000 -0.0000 1.0000
vn -1.0000 -0.0000 -0.0000
vn -0.0000 -0.0000 -1.0000
vn -0.0000 -1.0000 -0.0000
vn -0.0000 1.0000 -0.0000
vt 1.000000 0.000000
vt 0.500000 0.000000
vt 0.250000 0.965630
vt 1.000000 0.715630
vt 0.500000 0.715630
vt 0.250000 0.965630
vt 0.250000 0.000000
vt 0.250000 0.715630
vt 0.750000 0.000000
vt 0.750000 0.715630
vt 0.250000 0.715630
vt 0.750000 0.000000
vt 0.250000 0.000000
vt 0.500000 0.965630
vt 0.250000 0.715630
vt 0.750000 0.715630
vt 0.000000 0.965630
vt 0.500000 0.000000
vt 0.000000 0.000000
vt 0.500000 0.715630
vt 0.000000 0.715630
vt 0.500000 0.715630
s 0
usemtl マテリアル.009
f 2/4/1 3/9/1 1/1/1
f 4/11/2 7/19/2 3/7/2
f 8/22/3 5/13/3 7/18/3
f 6/16/4 1/2/4 5/12/4
f 7/20/5 1/3/5 3/8/5
f 4/11/6 6/17/6 8/21/6
f 2/4/1 4/10/1 3/9/1
f 4/11/2 8/21/2 7/19/2
f 8/22/3 6/15/3 5/13/3
f 6/16/4 2/5/4 1/2/4
f 7/20/5 5/14/5 1/3/5
f 4/11/6 2/6/6 6/17/6
