# Blender 3.3.0
# www.blender.org
mtllib EnemyRobotBody.mtl
o Cube
v 0.409693 0.638529 0.617984
v 0.461583 -1.000000 0.632804
v -0.450129 0.638528 0.623233
v -0.465616 -1.000000 0.628632
v 0.469895 0.638529 -0.018895
v 0.606172 -1.000000 -0.018895
v -0.510466 0.638528 -0.018895
v -0.607500 -1.000000 -0.018895
v -0.000755 -1.000000 -0.018895
v -0.000755 0.638528 0.636829
v -0.000755 0.638528 -0.018895
v -0.000755 -1.000000 0.684212
v -0.304128 -1.000000 -0.018895
v -0.304128 0.638528 0.636829
v -0.304128 0.638528 -0.018895
v -0.304128 -1.000000 0.684212
v 0.302708 0.638529 -0.018895
v 0.302708 -1.000000 0.684212
v 0.302708 -1.000000 -0.018895
v 0.302708 0.638529 0.636829
v 0.606172 -1.000000 0.332658
v -0.510466 0.638528 0.332658
v -0.607500 -1.000000 0.332658
v 0.469895 0.638529 0.332658
v -0.000755 -1.000000 0.332658
v -0.304128 -1.000000 0.332658
v -0.304128 0.638528 0.332658
v 0.302708 0.638529 0.332658
v 0.302708 -1.000000 0.332658
v 0.606172 -1.000000 0.156882
v -0.510466 0.638528 0.156882
v -0.000755 -1.000000 0.156882
v -0.304128 -1.000000 0.156882
v 0.302708 -1.000000 0.156882
v -0.607500 -1.000000 0.156882
v 0.469895 0.638529 0.156882
v -0.000755 0.684308 0.156882
v -0.304128 0.638528 0.156882
v 0.302708 0.638529 0.156882
v -0.607500 -1.000000 0.508435
v 0.469895 0.638529 0.508435
v -0.000755 0.638528 0.508435
v -0.304128 0.638528 0.508435
v 0.302708 0.638529 0.508435
v 0.606172 -1.000000 0.508435
v -0.510466 0.638528 0.508435
v -0.000755 -1.000000 0.508435
v -0.304128 -1.000000 0.508435
v 0.302708 -1.000000 0.508435
v 0.479210 0.000000 0.665321
v -0.630100 -0.000000 -0.018895
v -0.488216 -0.000000 0.661150
v 0.623799 0.000000 -0.018895
v -0.000755 -0.000000 0.716730
v -0.000755 -0.000000 -0.018895
v -0.304128 -0.000000 -0.018895
v -0.304128 -0.000000 0.716730
v 0.302708 0.000000 0.716730
v 0.302708 0.000000 -0.018895
v 0.623799 0.000000 0.332658
v -0.630100 -0.000000 0.332658
v 0.623799 0.000000 0.156882
v -0.630100 -0.000000 0.156882
v -0.630100 -0.000000 0.508435
v 0.623799 0.000000 0.508435
v -0.607501 0.500000 -0.018895
v 0.461583 0.500000 0.632804
v -0.465616 0.500000 0.628632
v 0.606171 0.500000 -0.018895
v -0.000755 0.500000 0.684212
v -0.000755 0.500000 -0.018895
v -0.304128 0.500000 -0.018895
v -0.304128 0.500000 0.684212
v 0.302708 0.500000 0.684212
v 0.302708 0.500000 -0.018895
v 0.606171 0.500000 0.332658
v -0.607501 0.500000 0.332658
v 0.606171 0.500000 0.156882
v -0.607501 0.500000 0.156882
v -0.607501 0.500000 0.508435
v 0.606171 0.500000 0.508435
v 0.390767 -0.497042 0.545744
v -0.398537 -0.497042 0.541573
v 0.535355 -0.497042 -0.018895
v -0.000755 -0.497042 0.597153
v -0.000755 -0.497042 -0.018895
v -0.304128 -0.497042 -0.018895
v -0.304128 -0.497042 0.597153
v 0.302708 -0.497042 0.597153
v 0.302708 -0.497042 -0.018895
v 0.535355 -0.497042 0.332658
v -0.540422 -0.497042 0.332658
v 0.535355 -0.497042 0.156882
v -0.540422 -0.497042 0.156882
v -0.540422 -0.497042 0.508435
v 0.535355 -0.497042 0.508435
v -0.540422 -0.497042 -0.018895
v -0.152487 0.638528 -0.018895
v -0.152486 -1.000000 0.684212
v -0.152486 -1.000000 -0.018895
v -0.152487 0.638528 0.636829
v -0.139193 0.680285 0.332658
v -0.152486 -1.000000 0.332658
v -0.152486 -1.000000 0.156882
v -0.152487 0.684308 0.156882
v -0.152487 0.700331 0.508435
v -0.152486 -1.000000 0.508435
v -0.152486 -0.000000 0.716730
v -0.152486 -0.000000 -0.018895
v -0.152487 0.500000 0.684212
v -0.152486 0.500000 -0.018895
v -0.152486 -0.497042 -0.018895
v -0.152486 -0.497042 0.597153
v 0.145726 -1.000000 -0.018895
v 0.145726 0.638528 0.636829
v 0.145726 0.638528 -0.018895
v 0.145726 -1.000000 0.684212
v 0.145726 0.687881 0.332658
v 0.145726 -1.000000 0.332658
v 0.145726 -1.000000 0.156882
v 0.145726 0.687881 0.156882
v 0.145726 0.687881 0.508435
v 0.145726 -1.000000 0.508435
v 0.145726 0.000000 -0.018895
v 0.145726 0.000000 0.716730
v 0.145726 0.500000 -0.018895
v 0.145726 0.500000 0.684212
v 0.145726 -0.497042 0.597153
v 0.145726 -0.497042 -0.018895
v -0.585328 -0.248149 -0.018895
v 0.435055 -0.248149 0.605622
v -0.443444 -0.248149 0.601451
v 0.579643 -0.248149 -0.018895
v -0.000755 -0.248149 0.710400
v -0.000755 -0.248149 -0.018895
v -0.304128 -0.248149 -0.018895
v -0.304128 -0.248149 0.710400
v 0.302708 -0.248149 0.710400
v 0.302708 -0.248149 -0.018895
v 0.579643 -0.248149 0.332658
v -0.585328 -0.248149 0.332658
v 0.579643 -0.248149 0.156882
v -0.585328 -0.248149 0.156882
v -0.585328 -0.248149 0.508435
v 0.579643 -0.248149 0.508435
v -0.152486 -0.248149 -0.018895
v -0.152486 -0.248149 0.710400
v 0.145726 -0.248149 0.710400
v 0.145726 -0.248149 -0.018895
v 0.470397 0.250000 0.649063
v -0.476916 0.250000 0.644891
v 0.614985 0.250000 -0.018895
v -0.000755 0.250000 0.700471
v -0.000755 0.250000 -0.018895
v -0.304128 0.250000 -0.018895
v -0.304128 0.250000 0.700471
v 0.302708 0.250000 0.700471
v 0.302708 0.250000 -0.018895
v 0.614985 0.250000 0.332658
v -0.618800 0.250000 0.332658
v 0.614985 0.250000 0.156882
v -0.618800 0.250000 0.156882
v -0.618800 0.250000 0.508435
v 0.614985 0.250000 0.508435
v -0.618800 0.250000 -0.018895
v -0.152486 0.250000 -0.018895
v -0.152486 0.250000 0.700471
v 0.145726 0.250000 0.700471
v 0.145726 0.250000 -0.018895
v -0.000755 0.834873 0.332658
v -0.000755 0.834873 0.156882
v -0.000755 0.834873 0.508435
v -0.152487 0.834873 0.332658
v -0.152487 0.834873 0.156882
v -0.152487 0.834873 0.508435
v 0.145726 0.834873 0.332658
v 0.145726 0.834873 0.156882
v 0.145726 0.834873 0.508435
vn -0.0000 1.0000 -0.0000
vn -0.8191 0.5737 -0.0000
vn -0.0000 -0.0000 -1.0000
vn -0.0000 -1.0000 -0.0000
vn -0.3246 0.0730 0.9430
vn 0.5489 0.5400 0.6381
vn -0.0000 0.3236 0.9462
vn -0.0235 0.9625 -0.2702
vn -0.2804 0.9289 -0.2419
vn 0.3009 0.2122 0.9298
vn -0.3774 0.9260 -0.0000
vn 1.0000 -0.0000 -0.0000
vn 0.7129 0.7013 -0.0000
vn -0.2452 0.9686 0.0407
vn -0.0000 -0.0000 1.0000
vn -0.5888 0.4125 0.6951
vn 0.9845 -0.1752 -0.0000
vn -0.5251 -0.2875 0.8010
vn -0.9841 -0.1776 -0.0000
vn 0.6206 -0.0200 0.7839
vn -0.0000 -0.0255 0.9997
vn 0.5345 -0.2864 0.7952
vn -0.6159 -0.0201 0.7876
vn 0.9994 0.0352 -0.0000
vn -0.6928 0.0313 0.7204
vn -0.9990 0.0452 -0.0000
vn 0.2925 0.0621 0.9542
vn -0.0000 0.0649 0.9979
vn 0.6970 0.0246 0.7166
vn -0.3053 0.0755 0.9492
vn -0.9912 0.1322 -0.0000
vn -0.3212 0.1615 0.9331
vn 0.6494 0.0914 0.7550
vn -0.0000 0.1706 0.9853
vn 0.3038 0.1625 0.9388
vn 0.9902 0.1394 -0.0000
vn -0.6440 0.0859 0.7602
vn -0.0000 0.9677 -0.2520
vn 0.2999 0.9540 -0.0000
vn 0.2897 0.9215 -0.2587
vn -0.0000 -0.4141 0.9102
vn -0.4861 -0.2863 0.8257
vn 0.2408 -0.2673 0.9330
vn 0.4832 -0.2851 0.8278
vn -0.2193 -0.2654 0.9389
vn -0.2882 0.0751 0.9546
vn 0.7351 0.0259 0.6775
vn 0.2791 0.0623 0.9582
vn -0.7322 0.0331 0.6803
vn -1.0000 -0.0000 -0.0000
vn -0.9942 -0.0855 -0.0654
vn -0.0878 0.3224 0.9425
vn 0.8193 0.3551 0.4502
vn 0.1644 0.3192 0.9333
vn -0.2434 0.9614 -0.1281
vn -0.2890 0.9573 -0.0000
vn -0.8792 0.1163 0.4621
vn -0.3000 0.8904 0.3423
vn -0.3447 0.8458 0.4071
vn -0.7263 -0.1310 0.6748
vn 0.2692 -0.2703 0.9244
vn 0.7291 -0.1297 0.6720
vn -0.2781 -0.2718 0.9213
vn -0.6444 0.0786 0.7607
vn 0.3071 0.0725 0.9489
vn 0.6504 0.0721 0.7562
vn -0.3248 0.0614 0.9438
vn -0.4958 0.2119 0.8422
vn 0.2449 0.1987 0.9490
vn 0.4923 0.2153 0.8433
vn -0.2231 0.1951 0.9551
vn 0.3445 0.8459 0.4072
vn 0.2816 0.8957 0.3443
vn -0.5799 -0.3374 0.7415
vn 0.5551 -0.0988 0.8259
vn 0.5846 -0.3360 0.7385
vn -0.5456 -0.0984 0.8322
vn -0.3056 0.0618 0.9501
vn 0.6955 0.0710 0.7150
vn 0.2923 0.0723 0.9536
vn -0.6911 0.0780 0.7186
vn -0.9937 -0.0854 0.0732
vt 0.612617 0.667305
vt 0.326200 0.514400
vt 0.792583 0.577736
vt 0.204432 0.559756
vt 0.342366 0.000593
vt 0.056482 0.514400
vt 0.790937 0.847454
vt 0.798564 0.000000
vt 0.203123 0.850609
vt 0.051514 0.000709
vt 0.441614 0.513990
vt 0.992366 0.558851
vt 0.000000 0.514400
vt 0.398865 0.000000
vt 0.607968 0.513990
vt 0.992366 0.866381
vt 0.999995 0.001204
vt 0.749143 0.513990
vt 0.779582 0.000000
vt 0.000000 0.895117
vt 1.000000 0.516089
vt 0.000000 0.704787
vt 0.589252 0.000000
vt 0.786672 0.706490
vt 0.197444 0.514208
vt 0.992366 0.706490
vt 0.589252 0.513990
vt 0.197328 0.000022
vt 0.220558 0.704787
vt 0.000000 0.799952
vt 0.684417 0.000000
vt 0.786672 0.801655
vt 0.102279 0.514230
vt 0.992366 0.801655
vt 0.684417 0.513990
vt 0.220558 0.799952
vt 0.102163 0.000044
vt 0.494059 0.513990
vt 0.992366 0.611296
vt 0.292522 0.000000
vt 0.220558 0.609594
vt 0.000000 0.609594
vt 0.494059 0.000000
vt 0.786672 0.611296
vt 0.292637 0.514186
vt 0.110279 0.514400
vt 0.497689 0.513990
vt 0.889716 0.001205
vt 0.882087 0.866381
vt 0.110279 0.895117
vt 0.889721 0.516090
vt 0.882087 0.558851
vt 0.110279 0.704787
vt 0.110279 0.799952
vt 0.882087 0.801655
vt 0.882087 0.611296
vt 0.110279 0.609594
vt 0.055139 0.514400
vt 0.552828 0.513990
vt 0.944856 0.001205
vt 0.937226 0.866381
vt 0.055139 0.704787
vt 0.055139 0.799952
vt 0.055139 0.609594
vt 0.055139 0.895117
vt 0.944860 0.516090
vt 0.937226 0.558851
vt 0.937232 0.706493
vt 0.361335 0.653897
vt 0.937226 0.801655
vt 0.937226 0.611296
vt 0.834581 0.516091
vt 0.007023 0.002132
vt 0.165418 0.895117
vt 0.646981 0.667776
vt 0.826947 0.558851
vt 0.826948 0.706490
vt 0.314104 0.560349
vt 0.826948 0.801655
vt 0.826947 0.611296
vt 0.387740 0.002045
vt 0.165418 0.514400
vt 0.442549 0.513990
vt 0.826948 0.866381
vt 0.834577 0.001206
vt 0.165418 0.704787
vt 0.165418 0.799952
vt 0.165418 0.609594
vt 0.393336 0.826588
vt 0.347958 0.313679
vt 0.786672 0.313690
vt 1.000000 0.203488
vt 0.044486 0.313798
vt 0.786672 0.200654
vt 0.607968 0.827721
vt 0.393336 0.313690
vt 0.197390 0.313109
vt 0.589252 0.313690
vt 0.684417 0.313690
vt 0.102225 0.313131
vt 0.292584 0.313087
vt 0.494059 0.313690
vt 0.497689 0.827721
vt 0.889721 0.203489
vt 0.552828 0.827721
vt 0.944860 0.203489
vt 0.000000 0.315603
vt 0.834581 0.203490
vt 0.393336 0.315513
vt 0.442549 0.827721
vt 0.779582 0.470535
vt 0.999999 0.046510
vt 0.607968 0.624269
vt 0.342466 0.470798
vt 0.796871 0.043676
vt 0.051613 0.470913
vt 0.992350 0.516091
vt 0.607968 0.984379
vt 0.398865 0.470535
vt 0.197428 0.470226
vt 0.589252 0.470535
vt 0.684417 0.470535
vt 0.102263 0.470248
vt 0.292621 0.470205
vt 0.494059 0.470535
vt 0.882071 0.516091
vt 0.497689 0.984379
vt 0.889720 0.046511
vt 0.937210 0.516091
vt 0.552828 0.984379
vt 0.944859 0.046511
vt 0.007123 0.472337
vt 0.834580 0.046512
vt 0.646981 0.625402
vt 0.826931 0.516091
vt 0.442549 0.984379
vt 0.387840 0.472250
vt 0.320198 0.159284
vt 0.072601 0.159389
vt 0.607968 0.671159
vt 0.421080 0.157773
vt 0.197374 0.158707
vt 0.589252 0.157773
vt 0.684417 0.157773
vt 0.102209 0.158729
vt 0.292567 0.158686
vt 0.494059 0.157773
vt 0.497689 0.671159
vt 0.889718 0.357297
vt 0.552828 0.671159
vt 0.944858 0.357297
vt 0.834579 0.357298
vt 0.028098 0.159789
vt 0.365559 0.159712
vt 0.442549 0.671159
vt 0.999997 0.357296
vt 0.758540 0.157773
vt 0.992366 0.754086
vt 0.636849 0.513990
vt 0.149732 0.000033
vt 0.220558 0.752384
vt 0.636849 0.000000
vt 0.000000 0.752384
vt 0.786672 0.754086
vt 0.149847 0.514219
vt 0.882092 0.749920
vt 0.607968 0.569129
vt 0.110279 0.752384
vt 0.055139 0.752384
vt 0.937232 0.754090
vt 0.608962 0.624269
vt 0.361335 0.701494
vt 0.826955 0.754092
vt 0.333477 0.607947
vt 0.613977 0.513990
vt 0.165418 0.752384
vt 0.149794 0.313120
vt 0.636849 0.313690
vt 0.149831 0.470237
vt 0.636849 0.470535
vt 0.636849 0.157773
vt 0.149777 0.158718
vt 0.543302 0.000000
vt 0.000000 0.658837
vt 0.786672 0.660540
vt 0.243394 0.514197
vt 0.543302 0.513990
vt 0.992366 0.660540
vt 0.243278 0.000011
vt 0.220558 0.658837
vt 0.702192 0.569130
vt 0.882093 0.660544
vt 0.110279 0.658837
vt 0.055139 0.658837
vt 0.702192 0.624269
vt 0.937232 0.660544
vt 0.360214 0.607947
vt 0.702192 0.513990
vt 0.329575 0.514400
vt 0.826953 0.660544
vt 0.165418 0.658837
vt 0.543302 0.313690
vt 0.243340 0.313099
vt 0.543302 0.470535
vt 0.243378 0.470216
vt 0.243324 0.158697
vt 0.543302 0.157773
vt 0.999999 0.280277
vt 0.772627 0.235848
vt 0.334099 0.236597
vt 0.058523 0.236709
vt 0.407187 0.235848
vt 0.607968 0.749557
vt 0.197375 0.235396
vt 0.589252 0.235848
vt 0.684417 0.235848
vt 0.102210 0.235418
vt 0.292568 0.235375
vt 0.494059 0.235848
vt 0.497689 0.749557
vt 0.889720 0.280278
vt 0.552828 0.749557
vt 0.944859 0.280278
vt 0.834580 0.280279
vt 0.014028 0.237813
vt 0.379468 0.237729
vt 0.442549 0.749557
vt 0.636849 0.235848
vt 0.149778 0.235407
vt 0.243324 0.235386
vt 0.543302 0.235848
vt 0.398436 0.904917
vt 0.345212 0.392238
vt 0.048050 0.392355
vt 0.791771 0.122165
vt 0.396101 0.392113
vt 0.607968 0.906050
vt 0.197409 0.391668
vt 0.589252 0.392113
vt 0.684417 0.392113
vt 0.102244 0.391690
vt 0.292603 0.391646
vt 0.494059 0.392113
vt 0.497689 0.906050
vt 0.889720 0.125000
vt 0.552828 0.906050
vt 0.944860 0.125000
vt 0.003561 0.393970
vt 0.834581 0.125001
vt 0.390588 0.393882
vt 0.442549 0.906050
vt 0.999999 0.124999
vt 0.783127 0.392113
vt 0.636849 0.392113
vt 0.149812 0.391679
vt 0.243359 0.391657
vt 0.543302 0.392113
vt 0.268155 0.569540
vt 0.268155 0.624679
vt 0.314104 0.653897
vt 0.375652 0.560351
vt 0.268155 0.514400
vt 0.220558 0.569540
vt 0.656096 0.569130
vt 0.656096 0.624270
vt 0.220558 0.624679
vt 0.314104 0.701494
vt 0.375652 0.607947
vt 0.220558 0.514400
vt 0.656096 0.513991
vt 0.656096 0.569130
vt 0.314104 0.569540
vt 0.314104 0.607947
vt 0.656096 0.624269
vt 0.314104 0.624679
vt 0.314104 0.514400
vt 0.656096 0.513990
vt 0.375652 0.514401
s 0
usemtl Material
f 15/34/1 31/61/1 38/70/1
f 31/60/2 66/112/2 79/131/2
f 75/125/3 5/11/3 69/119/3
f 48/87/4 4/9/4 40/74/4
f 73/123/5 3/6/5 68/116/5
f 41/75/6 67/113/6 81/134/6
f 115/186/7 70/120/7 127/205/7
f 117/190/4 47/86/4 123/201/4
f 98/159/3 71/121/3 111/180/3
f 116/188/8 37/68/8 121/196/8
f 7/18/3 72/122/3 66/111/3
f 101/165/7 73/123/7 110/179/7
f 99/161/4 48/87/4 107/176/4
f 98/158/9 38/70/9 105/170/9
f 5/12/1 39/71/1 36/67/1
f 2/4/4 49/88/4 45/82/4
f 1/2/10 74/124/10 67/114/10
f 116/187/3 75/125/3 126/204/3
f 21/46/4 34/64/4 30/58/4
f 24/52/1 44/80/1 41/76/1
f 106/173/11 27/55/11 43/79/11
f 103/168/4 33/63/4 104/169/4
f 118/191/12 178/277/12 122/198/12
f 119/193/4 32/62/4 120/194/4
f 36/67/13 76/126/13 78/129/13
f 26/54/4 35/65/4 33/63/4
f 46/85/2 77/128/2 80/133/2
f 27/55/1 46/84/1 43/79/1
f 33/63/4 8/20/4 13/30/4
f 5/12/13 78/129/13 69/117/13
f 120/194/4 9/22/4 114/184/4
f 104/169/4 13/30/4 100/163/4
f 30/58/4 19/42/4 6/13/4
f 36/67/1 28/56/1 24/52/1
f 105/170/14 27/55/14 102/166/14
f 122/199/15 172/261/15 42/78/15
f 22/48/2 79/131/2 77/128/2
f 38/70/1 22/49/1 27/55/1
f 43/79/1 3/7/1 14/32/1
f 68/115/16 46/85/16 80/133/16
f 115/185/1 42/77/1 10/24/1
f 101/164/1 43/79/1 14/32/1
f 1/3/1 44/80/1 20/44/1
f 45/82/4 29/57/4 21/46/4
f 107/176/4 26/54/4 103/168/4
f 123/201/4 25/53/4 119/193/4
f 24/52/13 81/135/13 76/126/13
f 48/87/4 23/50/4 26/54/4
f 60/103/17 145/227/17 140/220/17
f 52/93/18 144/225/18 132/211/18
f 61/104/19 143/223/19 141/221/19
f 53/95/17 142/222/17 133/213/17
f 64/108/19 141/221/19 144/224/19
f 62/105/17 140/220/17 142/222/17
f 124/202/3 139/219/3 149/231/3
f 131/210/20 58/101/20 138/218/20
f 108/177/21 137/217/21 147/229/21
f 130/209/3 56/99/3 136/216/3
f 109/178/3 135/215/3 146/228/3
f 125/203/21 134/214/21 148/230/21
f 145/226/22 50/90/22 131/210/22
f 57/100/23 132/211/23 137/217/23
f 59/102/3 133/212/3 139/219/3
f 63/106/19 130/208/19 143/223/19
f 76/127/24 164/251/24 159/244/24
f 151/234/25 80/132/25 163/248/25
f 77/128/26 162/247/26 160/245/26
f 69/118/24 161/246/24 152/237/24
f 80/133/26 160/245/26 163/249/26
f 78/130/24 159/244/24 161/246/24
f 126/204/3 158/243/3 169/257/3
f 150/233/27 74/124/27 157/242/27
f 110/179/28 156/241/28 167/255/28
f 66/111/3 155/240/3 165/253/3
f 111/180/3 154/239/3 166/254/3
f 127/205/28 153/238/28 168/256/28
f 81/137/29 150/233/29 164/250/29
f 156/241/30 68/116/30 151/234/30
f 158/243/3 69/119/3 152/236/3
f 79/131/26 165/252/26 162/247/26
f 94/151/31 8/21/31 35/66/31
f 19/43/3 84/141/3 6/14/3
f 88/145/32 4/10/32 16/37/32
f 96/154/33 2/5/33 45/81/33
f 128/206/34 12/28/34 117/189/34
f 112/181/3 9/23/3 100/162/3
f 97/157/3 13/31/3 8/19/3
f 113/182/34 16/37/34 99/160/34
f 2/5/35 89/146/35 18/40/35
f 129/207/3 19/43/3 114/183/3
f 93/150/36 21/47/36 30/59/36
f 95/152/31 23/51/31 40/72/31
f 84/140/36 30/59/36 6/15/36
f 92/149/31 35/66/31 23/51/31
f 4/10/37 95/153/37 40/73/37
f 91/148/36 45/83/36 21/47/36
f 85/142/34 99/160/34 12/28/34
f 87/144/3 100/162/3 13/31/3
f 72/122/3 166/254/3 155/240/3
f 70/120/28 167/255/28 153/238/28
f 56/99/3 146/228/3 136/216/3
f 54/97/21 147/229/21 134/214/21
f 47/86/4 103/168/4 25/53/4
f 42/77/1 101/164/1 10/24/1
f 106/174/15 172/261/15 175/268/15
f 32/62/4 100/163/4 9/22/4
f 25/53/4 104/169/4 32/62/4
f 121/195/12 176/271/12 118/191/12
f 11/26/38 105/170/38 37/68/38
f 12/29/4 107/176/4 47/86/4
f 10/25/7 110/179/7 70/120/7
f 15/35/3 111/180/3 72/122/3
f 86/143/3 114/183/3 9/23/3
f 89/146/34 117/189/34 18/40/34
f 74/124/28 168/256/28 157/242/28
f 71/121/3 169/257/3 154/239/3
f 58/101/21 148/230/21 138/218/21
f 55/98/3 149/231/3 135/215/3
f 49/88/4 119/193/4 29/57/4
f 44/80/1 115/185/1 20/44/1
f 39/71/39 118/192/39 28/56/39
f 34/64/4 114/184/4 19/42/4
f 29/57/4 120/194/4 34/64/4
f 28/56/39 122/200/39 44/80/39
f 11/27/3 126/204/3 71/121/3
f 39/71/40 116/188/40 121/196/40
f 18/41/4 123/201/4 49/88/4
f 20/45/7 127/205/7 74/124/7
f 135/215/3 129/207/3 86/143/3
f 138/218/41 128/206/41 89/146/41
f 134/214/41 113/182/41 85/142/41
f 136/216/3 112/181/3 87/144/3
f 143/223/19 97/156/19 94/151/19
f 139/219/3 84/141/3 90/147/3
f 88/145/42 132/211/42 83/139/42
f 96/154/43 131/210/43 82/138/43
f 148/230/41 85/142/41 128/206/41
f 146/228/3 86/143/3 112/181/3
f 97/157/3 136/216/3 87/144/3
f 147/229/41 88/145/41 113/182/41
f 131/210/44 89/146/44 82/138/44
f 149/231/3 90/147/3 129/207/3
f 142/222/17 91/148/17 93/150/17
f 144/224/19 92/149/19 95/152/19
f 133/213/17 93/150/17 84/140/17
f 141/221/19 94/151/19 92/149/19
f 132/211/45 95/153/45 83/139/45
f 140/220/17 96/155/17 91/148/17
f 154/239/3 124/202/3 55/98/3
f 157/242/28 125/203/28 58/101/28
f 153/238/28 108/177/28 54/97/28
f 155/240/3 109/178/3 56/99/3
f 162/247/26 51/92/26 63/106/26
f 59/102/3 152/236/3 53/96/3
f 57/100/46 151/234/46 52/93/46
f 164/251/47 50/89/47 65/110/47
f 168/256/28 54/97/28 125/203/28
f 166/254/3 55/98/3 109/178/3
f 165/253/3 56/99/3 51/91/3
f 167/255/28 57/100/28 108/177/28
f 50/90/48 157/242/48 58/101/48
f 169/257/3 59/102/3 124/202/3
f 161/246/24 60/103/24 62/105/24
f 163/249/26 61/104/26 64/108/26
f 152/237/24 62/105/24 53/95/24
f 160/245/26 63/106/26 61/104/26
f 52/94/49 163/249/49 64/108/49
f 159/244/24 65/110/24 60/103/24
f 176/272/1 172/262/1 178/276/1
f 177/275/1 170/258/1 176/272/1
f 171/259/1 173/263/1 170/258/1
f 170/258/1 175/269/1 172/262/1
f 105/171/50 173/264/50 174/265/50
f 121/197/3 171/260/3 177/273/3
f 105/172/3 171/260/3 37/69/3
f 106/175/51 173/264/51 102/167/51
f 15/34/1 7/16/1 31/61/1
f 31/60/2 7/17/2 66/112/2
f 75/125/3 17/38/3 5/11/3
f 48/87/4 16/36/4 4/9/4
f 73/123/52 14/33/52 3/6/52
f 41/75/53 1/1/53 67/113/53
f 115/186/7 10/25/7 70/120/7
f 117/190/4 12/29/4 47/86/4
f 98/159/3 11/27/3 71/121/3
f 116/188/38 11/26/38 37/68/38
f 7/18/3 15/35/3 72/122/3
f 101/165/7 14/33/7 73/123/7
f 99/161/4 16/36/4 48/87/4
f 98/158/1 15/34/1 38/70/1
f 5/12/1 17/39/1 39/71/1
f 2/4/4 18/41/4 49/88/4
f 1/2/54 20/45/54 74/124/54
f 116/187/3 17/38/3 75/125/3
f 21/46/4 29/57/4 34/64/4
f 24/52/1 28/56/1 44/80/1
f 106/173/55 102/166/55 27/55/55
f 103/168/4 26/54/4 33/63/4
f 118/191/12 176/271/12 178/277/12
f 119/193/4 25/53/4 32/62/4
f 36/67/13 24/52/13 76/126/13
f 26/54/4 23/50/4 35/65/4
f 46/85/2 22/48/2 77/128/2
f 27/55/1 22/49/1 46/84/1
f 33/63/4 35/65/4 8/20/4
f 5/12/13 36/67/13 78/129/13
f 120/194/4 32/62/4 9/22/4
f 104/169/4 33/63/4 13/30/4
f 30/58/4 34/64/4 19/42/4
f 36/67/1 39/71/1 28/56/1
f 105/170/56 38/70/56 27/55/56
f 122/199/15 178/278/15 172/261/15
f 22/48/2 31/60/2 79/131/2
f 38/70/1 31/61/1 22/49/1
f 43/79/1 46/84/1 3/7/1
f 68/115/57 3/8/57 46/85/57
f 115/185/58 122/200/58 42/77/58
f 101/164/59 106/173/59 43/79/59
f 1/3/1 41/76/1 44/80/1
f 45/82/4 49/88/4 29/57/4
f 107/176/4 48/87/4 26/54/4
f 123/201/4 47/86/4 25/53/4
f 24/52/13 41/76/13 81/135/13
f 48/87/4 40/74/4 23/50/4
f 60/103/17 65/110/17 145/227/17
f 52/93/60 64/107/60 144/225/60
f 61/104/19 63/106/19 143/223/19
f 53/95/17 62/105/17 142/222/17
f 64/108/19 61/104/19 141/221/19
f 62/105/17 60/103/17 140/220/17
f 124/202/3 59/102/3 139/219/3
f 131/210/61 50/90/61 58/101/61
f 108/177/21 57/100/21 137/217/21
f 130/209/3 51/91/3 56/99/3
f 109/178/3 55/98/3 135/215/3
f 125/203/21 54/97/21 134/214/21
f 145/226/62 65/109/62 50/90/62
f 57/100/63 52/93/63 132/211/63
f 59/102/3 53/96/3 133/212/3
f 63/106/19 51/92/19 130/208/19
f 76/127/24 81/136/24 164/251/24
f 151/234/64 68/116/64 80/132/64
f 77/128/26 79/131/26 162/247/26
f 69/118/24 78/130/24 161/246/24
f 80/133/26 77/128/26 160/245/26
f 78/130/24 76/127/24 159/244/24
f 126/204/3 75/125/3 158/243/3
f 150/233/65 67/114/65 74/124/65
f 110/179/28 73/123/28 156/241/28
f 66/111/3 72/122/3 155/240/3
f 111/180/3 71/121/3 154/239/3
f 127/205/28 70/120/28 153/238/28
f 81/137/66 67/114/66 150/233/66
f 156/241/67 73/123/67 68/116/67
f 158/243/3 75/125/3 69/119/3
f 79/131/26 66/112/26 165/252/26
f 94/151/31 97/156/31 8/21/31
f 19/43/3 90/147/3 84/141/3
f 88/145/68 83/139/68 4/10/68
f 96/154/69 82/138/69 2/5/69
f 128/206/34 85/142/34 12/28/34
f 112/181/3 86/143/3 9/23/3
f 97/157/3 87/144/3 13/31/3
f 113/182/34 88/145/34 16/37/34
f 2/5/70 82/138/70 89/146/70
f 129/207/3 90/147/3 19/43/3
f 93/150/36 91/148/36 21/47/36
f 95/152/31 92/149/31 23/51/31
f 84/140/36 93/150/36 30/59/36
f 92/149/31 94/151/31 35/66/31
f 4/10/71 83/139/71 95/153/71
f 91/148/36 96/155/36 45/83/36
f 85/142/34 113/182/34 99/160/34
f 87/144/3 112/181/3 100/162/3
f 72/122/3 111/180/3 166/254/3
f 70/120/28 110/179/28 167/255/28
f 56/99/3 109/178/3 146/228/3
f 54/97/21 108/177/21 147/229/21
f 47/86/4 107/176/4 103/168/4
f 42/77/72 106/173/72 101/164/72
f 106/174/15 42/78/15 172/261/15
f 32/62/4 104/169/4 100/163/4
f 25/53/4 103/168/4 104/169/4
f 121/195/12 177/274/12 176/271/12
f 11/26/38 98/158/38 105/170/38
f 12/29/4 99/161/4 107/176/4
f 10/25/7 101/165/7 110/179/7
f 15/35/3 98/159/3 111/180/3
f 86/143/3 129/207/3 114/183/3
f 89/146/34 128/206/34 117/189/34
f 74/124/28 127/205/28 168/256/28
f 71/121/3 126/204/3 169/257/3
f 58/101/21 125/203/21 148/230/21
f 55/98/3 124/202/3 149/231/3
f 49/88/4 123/201/4 119/193/4
f 44/80/73 122/200/73 115/185/73
f 39/71/39 121/196/39 118/192/39
f 34/64/4 120/194/4 114/184/4
f 29/57/4 119/193/4 120/194/4
f 28/56/39 118/192/39 122/200/39
f 11/27/3 116/187/3 126/204/3
f 39/71/1 17/39/1 116/188/1
f 18/41/4 117/190/4 123/201/4
f 20/45/7 115/186/7 127/205/7
f 135/215/3 149/231/3 129/207/3
f 138/218/41 148/230/41 128/206/41
f 134/214/41 147/229/41 113/182/41
f 136/216/3 146/228/3 112/181/3
f 143/223/19 130/208/19 97/156/19
f 139/219/3 133/212/3 84/141/3
f 88/145/74 137/217/74 132/211/74
f 96/154/75 145/226/75 131/210/75
f 148/230/41 134/214/41 85/142/41
f 146/228/3 135/215/3 86/143/3
f 97/157/3 130/209/3 136/216/3
f 147/229/41 137/217/41 88/145/41
f 131/210/76 138/218/76 89/146/76
f 149/231/3 139/219/3 90/147/3
f 142/222/17 140/220/17 91/148/17
f 144/224/19 141/221/19 92/149/19
f 133/213/17 142/222/17 93/150/17
f 141/221/19 143/223/19 94/151/19
f 132/211/77 144/225/77 95/153/77
f 140/220/17 145/227/17 96/155/17
f 154/239/3 169/257/3 124/202/3
f 157/242/28 168/256/28 125/203/28
f 153/238/28 167/255/28 108/177/28
f 155/240/3 166/254/3 109/178/3
f 162/247/26 165/252/26 51/92/26
f 59/102/3 158/243/3 152/236/3
f 57/100/78 156/241/78 151/234/78
f 164/251/79 150/232/79 50/89/79
f 168/256/28 153/238/28 54/97/28
f 166/254/3 154/239/3 55/98/3
f 165/253/3 155/240/3 56/99/3
f 167/255/28 156/241/28 57/100/28
f 50/90/80 150/233/80 157/242/80
f 169/257/3 158/243/3 59/102/3
f 161/246/24 159/244/24 60/103/24
f 163/249/26 160/245/26 61/104/26
f 152/237/24 161/246/24 62/105/24
f 160/245/26 162/247/26 63/106/26
f 52/94/81 151/235/81 163/249/81
f 159/244/24 164/251/24 65/110/24
f 176/272/1 170/258/1 172/262/1
f 177/275/1 171/259/1 170/258/1
f 171/259/1 174/266/1 173/263/1
f 170/258/1 173/263/1 175/269/1
f 105/171/82 102/167/82 173/264/82
f 121/197/3 37/69/3 171/260/3
f 105/172/3 174/267/3 171/260/3
f 106/175/50 175/270/50 173/264/50
